<?xml version="1.0" encoding="UTF-8"?>
<svg xmlns="http://www.w3.org/2000/svg" xmlns:xlink="http://www.w3.org/1999/xlink" width="70pt" height="78pt" viewBox="0 0 70 78" version="1.1">
<g id="surface50981">
<path style="fill:none;stroke-width:0.001;stroke-linecap:round;stroke-linejoin:miter;stroke:rgb(0%,0%,0%);stroke-opacity:1;stroke-miterlimit:10;" d="M 2.893726 2.652 L 3.779523 2.652 " transform="matrix(72,0,0,-72,-205.117823,265.362)"/>
<path style="fill:none;stroke-width:0.001;stroke-linecap:round;stroke-linejoin:miter;stroke:rgb(0%,0%,0%);stroke-opacity:1;stroke-miterlimit:10;" d="M 3.779523 2.652 L 3.779523 3.635996 " transform="matrix(72,0,0,-72,-205.117823,265.362)"/>
<path style="fill:none;stroke-width:0.001;stroke-linecap:round;stroke-linejoin:miter;stroke:rgb(0%,0%,0%);stroke-opacity:1;stroke-miterlimit:10;" d="M 3.779523 3.635996 L 2.893726 3.635996 " transform="matrix(72,0,0,-72,-205.117823,265.362)"/>
<path style="fill:none;stroke-width:0.001;stroke-linecap:round;stroke-linejoin:miter;stroke:rgb(0%,0%,0%);stroke-opacity:1;stroke-miterlimit:10;" d="M 2.893726 3.635996 L 2.893726 2.652 " transform="matrix(72,0,0,-72,-205.117823,265.362)"/>
<path style=" stroke:none;fill-rule:evenodd;fill:rgb(0%,0%,0%);fill-opacity:1;" d="M 20.144531 4.253906 L 20.144531 9.292969 L 21.945312 9.292969 L 21.945312 4.253906 Z M 20.144531 4.253906 "/>
<path style=" stroke:none;fill-rule:evenodd;fill:rgb(0%,0%,0%);fill-opacity:1;" d="M 19.34375 5.152344 L 19.34375 8.390625 L 22.945312 8.390625 L 22.945312 5.152344 Z M 19.34375 5.152344 "/>
<path style=" stroke:none;fill-rule:evenodd;fill:rgb(0%,0%,0%);fill-opacity:1;" d="M 21.144531 8.394531 C 21.144531 7.195312 19.34375 7.195312 19.34375 8.394531 C 19.34375 9.59375 21.144531 9.59375 21.144531 8.394531 "/>
<path style=" stroke:none;fill-rule:evenodd;fill:rgb(0%,0%,0%);fill-opacity:1;" d="M 21.144531 5.152344 C 21.144531 3.953125 19.34375 3.953125 19.34375 5.152344 C 19.34375 6.355469 21.144531 6.355469 21.144531 5.152344 "/>
<path style=" stroke:none;fill-rule:evenodd;fill:rgb(0%,0%,0%);fill-opacity:1;" d="M 22.941406 5.152344 C 22.941406 3.953125 21.144531 3.953125 21.144531 5.152344 C 21.144531 6.355469 22.941406 6.355469 22.941406 5.152344 "/>
<path style=" stroke:none;fill-rule:evenodd;fill:rgb(0%,0%,0%);fill-opacity:1;" d="M 22.941406 8.394531 C 22.941406 7.195312 21.144531 7.195312 21.144531 8.394531 C 21.144531 9.59375 22.941406 9.59375 22.941406 8.394531 "/>
<path style=" stroke:none;fill-rule:evenodd;fill:rgb(0%,0%,0%);fill-opacity:1;" d="M 48.488281 4.253906 L 48.488281 9.292969 L 50.289062 9.292969 L 50.289062 4.253906 Z M 48.488281 4.253906 "/>
<path style=" stroke:none;fill-rule:evenodd;fill:rgb(0%,0%,0%);fill-opacity:1;" d="M 47.691406 5.152344 L 47.691406 8.390625 L 51.292969 8.390625 L 51.292969 5.152344 Z M 47.691406 5.152344 "/>
<path style=" stroke:none;fill-rule:evenodd;fill:rgb(0%,0%,0%);fill-opacity:1;" d="M 49.488281 8.394531 C 49.488281 7.195312 47.691406 7.195312 47.691406 8.394531 C 47.691406 9.59375 49.488281 9.59375 49.488281 8.394531 "/>
<path style=" stroke:none;fill-rule:evenodd;fill:rgb(0%,0%,0%);fill-opacity:1;" d="M 49.488281 5.152344 C 49.488281 3.953125 47.691406 3.953125 47.691406 5.152344 C 47.691406 6.355469 49.488281 6.355469 49.488281 5.152344 "/>
<path style=" stroke:none;fill-rule:evenodd;fill:rgb(0%,0%,0%);fill-opacity:1;" d="M 51.289062 5.152344 C 51.289062 3.953125 49.488281 3.953125 49.488281 5.152344 C 49.488281 6.355469 51.289062 6.355469 51.289062 5.152344 "/>
<path style=" stroke:none;fill-rule:evenodd;fill:rgb(0%,0%,0%);fill-opacity:1;" d="M 51.289062 8.394531 C 51.289062 7.195312 49.488281 7.195312 49.488281 8.394531 C 49.488281 9.59375 51.289062 9.59375 51.289062 8.394531 "/>
<path style=" stroke:none;fill-rule:evenodd;fill:rgb(0%,0%,0%);fill-opacity:1;" d="M 25.8125 4.253906 L 25.8125 11.453125 L 27.613281 11.453125 L 27.613281 4.253906 Z M 25.8125 4.253906 "/>
<path style=" stroke:none;fill-rule:evenodd;fill:rgb(0%,0%,0%);fill-opacity:1;" d="M 25.011719 5.152344 L 25.011719 10.550781 L 28.613281 10.550781 L 28.613281 5.152344 Z M 25.011719 5.152344 "/>
<path style=" stroke:none;fill-rule:evenodd;fill:rgb(0%,0%,0%);fill-opacity:1;" d="M 26.8125 10.554688 C 26.8125 9.355469 25.011719 9.355469 25.011719 10.554688 C 25.011719 11.753906 26.8125 11.753906 26.8125 10.554688 "/>
<path style=" stroke:none;fill-rule:evenodd;fill:rgb(0%,0%,0%);fill-opacity:1;" d="M 26.8125 5.152344 C 26.8125 3.953125 25.011719 3.953125 25.011719 5.152344 C 25.011719 6.355469 26.8125 6.355469 26.8125 5.152344 "/>
<path style=" stroke:none;fill-rule:evenodd;fill:rgb(0%,0%,0%);fill-opacity:1;" d="M 28.613281 5.152344 C 28.613281 3.953125 26.8125 3.953125 26.8125 5.152344 C 26.8125 6.355469 28.613281 6.355469 28.613281 5.152344 "/>
<path style=" stroke:none;fill-rule:evenodd;fill:rgb(0%,0%,0%);fill-opacity:1;" d="M 28.613281 10.554688 C 28.613281 9.355469 26.8125 9.355469 26.8125 10.554688 C 26.8125 11.753906 28.613281 11.753906 28.613281 10.554688 "/>
<path style=" stroke:none;fill-rule:evenodd;fill:rgb(0%,0%,0%);fill-opacity:1;" d="M 31.480469 4.253906 L 31.480469 11.453125 L 33.28125 11.453125 L 33.28125 4.253906 Z M 31.480469 4.253906 "/>
<path style=" stroke:none;fill-rule:evenodd;fill:rgb(0%,0%,0%);fill-opacity:1;" d="M 30.679688 5.152344 L 30.679688 10.550781 L 34.28125 10.550781 L 34.28125 5.152344 Z M 30.679688 5.152344 "/>
<path style=" stroke:none;fill-rule:evenodd;fill:rgb(0%,0%,0%);fill-opacity:1;" d="M 32.480469 10.554688 C 32.480469 9.355469 30.679688 9.355469 30.679688 10.554688 C 30.679688 11.753906 32.480469 11.753906 32.480469 10.554688 "/>
<path style=" stroke:none;fill-rule:evenodd;fill:rgb(0%,0%,0%);fill-opacity:1;" d="M 32.480469 5.152344 C 32.480469 3.953125 30.679688 3.953125 30.679688 5.152344 C 30.679688 6.355469 32.480469 6.355469 32.480469 5.152344 "/>
<path style=" stroke:none;fill-rule:evenodd;fill:rgb(0%,0%,0%);fill-opacity:1;" d="M 34.28125 5.152344 C 34.28125 3.953125 32.480469 3.953125 32.480469 5.152344 C 32.480469 6.355469 34.28125 6.355469 34.28125 5.152344 "/>
<path style=" stroke:none;fill-rule:evenodd;fill:rgb(0%,0%,0%);fill-opacity:1;" d="M 34.28125 10.554688 C 34.28125 9.355469 32.480469 9.355469 32.480469 10.554688 C 32.480469 11.753906 34.28125 11.753906 34.28125 10.554688 "/>
<path style=" stroke:none;fill-rule:evenodd;fill:rgb(0%,0%,0%);fill-opacity:1;" d="M 37.152344 4.253906 L 37.152344 11.453125 L 38.953125 11.453125 L 38.953125 4.253906 Z M 37.152344 4.253906 "/>
<path style=" stroke:none;fill-rule:evenodd;fill:rgb(0%,0%,0%);fill-opacity:1;" d="M 36.351562 5.152344 L 36.351562 10.550781 L 39.953125 10.550781 L 39.953125 5.152344 Z M 36.351562 5.152344 "/>
<path style=" stroke:none;fill-rule:evenodd;fill:rgb(0%,0%,0%);fill-opacity:1;" d="M 38.152344 10.554688 C 38.152344 9.355469 36.351562 9.355469 36.351562 10.554688 C 36.351562 11.753906 38.152344 11.753906 38.152344 10.554688 "/>
<path style=" stroke:none;fill-rule:evenodd;fill:rgb(0%,0%,0%);fill-opacity:1;" d="M 38.152344 5.152344 C 38.152344 3.953125 36.351562 3.953125 36.351562 5.152344 C 36.351562 6.355469 38.152344 6.355469 38.152344 5.152344 "/>
<path style=" stroke:none;fill-rule:evenodd;fill:rgb(0%,0%,0%);fill-opacity:1;" d="M 39.949219 5.152344 C 39.949219 3.953125 38.152344 3.953125 38.152344 5.152344 C 38.152344 6.355469 39.949219 6.355469 39.949219 5.152344 "/>
<path style=" stroke:none;fill-rule:evenodd;fill:rgb(0%,0%,0%);fill-opacity:1;" d="M 39.949219 10.554688 C 39.949219 9.355469 38.152344 9.355469 38.152344 10.554688 C 38.152344 11.753906 39.949219 11.753906 39.949219 10.554688 "/>
<path style=" stroke:none;fill-rule:evenodd;fill:rgb(0%,0%,0%);fill-opacity:1;" d="M 42.820312 4.253906 L 42.820312 11.453125 L 44.621094 11.453125 L 44.621094 4.253906 Z M 42.820312 4.253906 "/>
<path style=" stroke:none;fill-rule:evenodd;fill:rgb(0%,0%,0%);fill-opacity:1;" d="M 42.019531 5.152344 L 42.019531 10.550781 L 45.621094 10.550781 L 45.621094 5.152344 Z M 42.019531 5.152344 "/>
<path style=" stroke:none;fill-rule:evenodd;fill:rgb(0%,0%,0%);fill-opacity:1;" d="M 43.820312 10.554688 C 43.820312 9.355469 42.019531 9.355469 42.019531 10.554688 C 42.019531 11.753906 43.820312 11.753906 43.820312 10.554688 "/>
<path style=" stroke:none;fill-rule:evenodd;fill:rgb(0%,0%,0%);fill-opacity:1;" d="M 43.820312 5.152344 C 43.820312 3.953125 42.019531 3.953125 42.019531 5.152344 C 42.019531 6.355469 43.820312 6.355469 43.820312 5.152344 "/>
<path style=" stroke:none;fill-rule:evenodd;fill:rgb(0%,0%,0%);fill-opacity:1;" d="M 45.621094 5.152344 C 45.621094 3.953125 43.820312 3.953125 43.820312 5.152344 C 43.820312 6.355469 45.621094 6.355469 45.621094 5.152344 "/>
<path style=" stroke:none;fill-rule:evenodd;fill:rgb(0%,0%,0%);fill-opacity:1;" d="M 45.621094 10.554688 C 45.621094 9.355469 43.820312 9.355469 43.820312 10.554688 C 43.820312 11.753906 45.621094 11.753906 45.621094 10.554688 "/>
<path style=" stroke:none;fill-rule:evenodd;fill:rgb(0%,0%,0%);fill-opacity:1;" d="M 17.558594 49.605469 L 10.359375 49.605469 L 10.359375 51.40625 L 17.558594 51.40625 Z M 17.558594 49.605469 "/>
<path style=" stroke:none;fill-rule:evenodd;fill:rgb(0%,0%,0%);fill-opacity:1;" d="M 16.660156 48.804688 L 11.261719 48.804688 L 11.261719 52.40625 L 16.660156 52.40625 Z M 16.660156 48.804688 "/>
<path style=" stroke:none;fill-rule:evenodd;fill:rgb(0%,0%,0%);fill-opacity:1;" d="M 12.160156 49.703125 C 12.160156 48.503906 10.359375 48.503906 10.359375 49.703125 C 10.359375 50.902344 12.160156 50.902344 12.160156 49.703125 "/>
<path style=" stroke:none;fill-rule:evenodd;fill:rgb(0%,0%,0%);fill-opacity:1;" d="M 17.558594 49.703125 C 17.558594 48.503906 15.757812 48.503906 15.757812 49.703125 C 15.757812 50.902344 17.558594 50.902344 17.558594 49.703125 "/>
<path style=" stroke:none;fill-rule:evenodd;fill:rgb(0%,0%,0%);fill-opacity:1;" d="M 17.558594 51.503906 C 17.558594 50.304688 15.757812 50.304688 15.757812 51.503906 C 15.757812 52.703125 17.558594 52.703125 17.558594 51.503906 "/>
<path style=" stroke:none;fill-rule:evenodd;fill:rgb(0%,0%,0%);fill-opacity:1;" d="M 12.160156 51.503906 C 12.160156 50.304688 10.359375 50.304688 10.359375 51.503906 C 10.359375 52.703125 12.160156 52.703125 12.160156 51.503906 "/>
<path style=" stroke:none;fill-rule:evenodd;fill:rgb(0%,0%,0%);fill-opacity:1;" d="M 17.558594 43.933594 L 10.359375 43.933594 L 10.359375 45.734375 L 17.558594 45.734375 Z M 17.558594 43.933594 "/>
<path style=" stroke:none;fill-rule:evenodd;fill:rgb(0%,0%,0%);fill-opacity:1;" d="M 16.660156 43.132812 L 11.261719 43.132812 L 11.261719 46.734375 L 16.660156 46.734375 Z M 16.660156 43.132812 "/>
<path style=" stroke:none;fill-rule:evenodd;fill:rgb(0%,0%,0%);fill-opacity:1;" d="M 12.160156 44.035156 C 12.160156 42.835938 10.359375 42.835938 10.359375 44.035156 C 10.359375 45.234375 12.160156 45.234375 12.160156 44.035156 "/>
<path style=" stroke:none;fill-rule:evenodd;fill:rgb(0%,0%,0%);fill-opacity:1;" d="M 17.558594 44.035156 C 17.558594 42.835938 15.757812 42.835938 15.757812 44.035156 C 15.757812 45.234375 17.558594 45.234375 17.558594 44.035156 "/>
<path style=" stroke:none;fill-rule:evenodd;fill:rgb(0%,0%,0%);fill-opacity:1;" d="M 17.558594 45.835938 C 17.558594 44.632812 15.757812 44.632812 15.757812 45.835938 C 15.757812 47.035156 17.558594 47.035156 17.558594 45.835938 "/>
<path style=" stroke:none;fill-rule:evenodd;fill:rgb(0%,0%,0%);fill-opacity:1;" d="M 12.160156 45.835938 C 12.160156 44.632812 10.359375 44.632812 10.359375 45.835938 C 10.359375 47.035156 12.160156 47.035156 12.160156 45.835938 "/>
<path style=" stroke:none;fill-rule:evenodd;fill:rgb(0%,0%,0%);fill-opacity:1;" d="M 17.558594 38.265625 L 10.359375 38.265625 L 10.359375 40.066406 L 17.558594 40.066406 Z M 17.558594 38.265625 "/>
<path style=" stroke:none;fill-rule:evenodd;fill:rgb(0%,0%,0%);fill-opacity:1;" d="M 16.660156 37.464844 L 11.261719 37.464844 L 11.261719 41.066406 L 16.660156 41.066406 Z M 16.660156 37.464844 "/>
<path style=" stroke:none;fill-rule:evenodd;fill:rgb(0%,0%,0%);fill-opacity:1;" d="M 12.160156 38.363281 C 12.160156 37.164062 10.359375 37.164062 10.359375 38.363281 C 10.359375 39.566406 12.160156 39.566406 12.160156 38.363281 "/>
<path style=" stroke:none;fill-rule:evenodd;fill:rgb(0%,0%,0%);fill-opacity:1;" d="M 17.558594 38.363281 C 17.558594 37.164062 15.757812 37.164062 15.757812 38.363281 C 15.757812 39.566406 17.558594 39.566406 17.558594 38.363281 "/>
<path style=" stroke:none;fill-rule:evenodd;fill:rgb(0%,0%,0%);fill-opacity:1;" d="M 17.558594 40.164062 C 17.558594 38.964844 15.757812 38.964844 15.757812 40.164062 C 15.757812 41.363281 17.558594 41.363281 17.558594 40.164062 "/>
<path style=" stroke:none;fill-rule:evenodd;fill:rgb(0%,0%,0%);fill-opacity:1;" d="M 12.160156 40.164062 C 12.160156 38.964844 10.359375 38.964844 10.359375 40.164062 C 10.359375 41.363281 12.160156 41.363281 12.160156 40.164062 "/>
<path style=" stroke:none;fill-rule:evenodd;fill:rgb(0%,0%,0%);fill-opacity:1;" d="M 17.558594 32.597656 L 10.359375 32.597656 L 10.359375 34.398438 L 17.558594 34.398438 Z M 17.558594 32.597656 "/>
<path style=" stroke:none;fill-rule:evenodd;fill:rgb(0%,0%,0%);fill-opacity:1;" d="M 16.660156 31.796875 L 11.261719 31.796875 L 11.261719 35.398438 L 16.660156 35.398438 Z M 16.660156 31.796875 "/>
<path style=" stroke:none;fill-rule:evenodd;fill:rgb(0%,0%,0%);fill-opacity:1;" d="M 12.160156 32.695312 C 12.160156 31.496094 10.359375 31.496094 10.359375 32.695312 C 10.359375 33.894531 12.160156 33.894531 12.160156 32.695312 "/>
<path style=" stroke:none;fill-rule:evenodd;fill:rgb(0%,0%,0%);fill-opacity:1;" d="M 17.558594 32.695312 C 17.558594 31.496094 15.757812 31.496094 15.757812 32.695312 C 15.757812 33.894531 17.558594 33.894531 17.558594 32.695312 "/>
<path style=" stroke:none;fill-rule:evenodd;fill:rgb(0%,0%,0%);fill-opacity:1;" d="M 17.558594 34.496094 C 17.558594 33.296875 15.757812 33.296875 15.757812 34.496094 C 15.757812 35.695312 17.558594 35.695312 17.558594 34.496094 "/>
<path style=" stroke:none;fill-rule:evenodd;fill:rgb(0%,0%,0%);fill-opacity:1;" d="M 12.160156 34.496094 C 12.160156 33.296875 10.359375 33.296875 10.359375 34.496094 C 10.359375 35.695312 12.160156 35.695312 12.160156 34.496094 "/>
<path style=" stroke:none;fill-rule:evenodd;fill:rgb(0%,0%,0%);fill-opacity:1;" d="M 17.558594 26.925781 L 10.359375 26.925781 L 10.359375 28.726562 L 17.558594 28.726562 Z M 17.558594 26.925781 "/>
<path style=" stroke:none;fill-rule:evenodd;fill:rgb(0%,0%,0%);fill-opacity:1;" d="M 16.660156 26.125 L 11.261719 26.125 L 11.261719 29.726562 L 16.660156 29.726562 Z M 16.660156 26.125 "/>
<path style=" stroke:none;fill-rule:evenodd;fill:rgb(0%,0%,0%);fill-opacity:1;" d="M 12.160156 27.027344 C 12.160156 25.828125 10.359375 25.828125 10.359375 27.027344 C 10.359375 28.226562 12.160156 28.226562 12.160156 27.027344 "/>
<path style=" stroke:none;fill-rule:evenodd;fill:rgb(0%,0%,0%);fill-opacity:1;" d="M 17.558594 27.027344 C 17.558594 25.828125 15.757812 25.828125 15.757812 27.027344 C 15.757812 28.226562 17.558594 28.226562 17.558594 27.027344 "/>
<path style=" stroke:none;fill-rule:evenodd;fill:rgb(0%,0%,0%);fill-opacity:1;" d="M 17.558594 28.828125 C 17.558594 27.625 15.757812 27.625 15.757812 28.828125 C 15.757812 30.027344 17.558594 30.027344 17.558594 28.828125 "/>
<path style=" stroke:none;fill-rule:evenodd;fill:rgb(0%,0%,0%);fill-opacity:1;" d="M 12.160156 28.828125 C 12.160156 27.625 10.359375 27.625 10.359375 28.828125 C 10.359375 30.027344 12.160156 30.027344 12.160156 28.828125 "/>
<path style=" stroke:none;fill-rule:evenodd;fill:rgb(0%,0%,0%);fill-opacity:1;" d="M 17.558594 21.257812 L 10.359375 21.257812 L 10.359375 23.058594 L 17.558594 23.058594 Z M 17.558594 21.257812 "/>
<path style=" stroke:none;fill-rule:evenodd;fill:rgb(0%,0%,0%);fill-opacity:1;" d="M 16.660156 20.457031 L 11.261719 20.457031 L 11.261719 24.058594 L 16.660156 24.058594 Z M 16.660156 20.457031 "/>
<path style=" stroke:none;fill-rule:evenodd;fill:rgb(0%,0%,0%);fill-opacity:1;" d="M 12.160156 21.355469 C 12.160156 20.15625 10.359375 20.15625 10.359375 21.355469 C 10.359375 22.558594 12.160156 22.558594 12.160156 21.355469 "/>
<path style=" stroke:none;fill-rule:evenodd;fill:rgb(0%,0%,0%);fill-opacity:1;" d="M 17.558594 21.355469 C 17.558594 20.15625 15.757812 20.15625 15.757812 21.355469 C 15.757812 22.558594 17.558594 22.558594 17.558594 21.355469 "/>
<path style=" stroke:none;fill-rule:evenodd;fill:rgb(0%,0%,0%);fill-opacity:1;" d="M 17.558594 23.15625 C 17.558594 21.957031 15.757812 21.957031 15.757812 23.15625 C 15.757812 24.355469 17.558594 24.355469 17.558594 23.15625 "/>
<path style=" stroke:none;fill-rule:evenodd;fill:rgb(0%,0%,0%);fill-opacity:1;" d="M 12.160156 23.15625 C 12.160156 21.957031 10.359375 21.957031 10.359375 23.15625 C 10.359375 24.355469 12.160156 24.355469 12.160156 23.15625 "/>
<path style=" stroke:none;fill-rule:evenodd;fill:rgb(0%,0%,0%);fill-opacity:1;" d="M 17.558594 15.585938 L 10.359375 15.585938 L 10.359375 17.386719 L 17.558594 17.386719 Z M 17.558594 15.585938 "/>
<path style=" stroke:none;fill-rule:evenodd;fill:rgb(0%,0%,0%);fill-opacity:1;" d="M 16.660156 14.789062 L 11.261719 14.789062 L 11.261719 18.390625 L 16.660156 18.390625 Z M 16.660156 14.789062 "/>
<path style=" stroke:none;fill-rule:evenodd;fill:rgb(0%,0%,0%);fill-opacity:1;" d="M 12.160156 15.6875 C 12.160156 14.488281 10.359375 14.488281 10.359375 15.6875 C 10.359375 16.886719 12.160156 16.886719 12.160156 15.6875 "/>
<path style=" stroke:none;fill-rule:evenodd;fill:rgb(0%,0%,0%);fill-opacity:1;" d="M 17.558594 15.6875 C 17.558594 14.488281 15.757812 14.488281 15.757812 15.6875 C 15.757812 16.886719 17.558594 16.886719 17.558594 15.6875 "/>
<path style=" stroke:none;fill-rule:evenodd;fill:rgb(0%,0%,0%);fill-opacity:1;" d="M 17.558594 17.488281 C 17.558594 16.289062 15.757812 16.289062 15.757812 17.488281 C 15.757812 18.6875 17.558594 18.6875 17.558594 17.488281 "/>
<path style=" stroke:none;fill-rule:evenodd;fill:rgb(0%,0%,0%);fill-opacity:1;" d="M 12.160156 17.488281 C 12.160156 16.289062 10.359375 16.289062 10.359375 17.488281 C 10.359375 18.6875 12.160156 18.6875 12.160156 17.488281 "/>
<path style=" stroke:none;fill-rule:evenodd;fill:rgb(0%,0%,0%);fill-opacity:1;" d="M 17.558594 9.917969 L 10.359375 9.917969 L 10.359375 11.71875 L 17.558594 11.71875 Z M 17.558594 9.917969 "/>
<path style=" stroke:none;fill-rule:evenodd;fill:rgb(0%,0%,0%);fill-opacity:1;" d="M 16.660156 9.117188 L 11.261719 9.117188 L 11.261719 12.71875 L 16.660156 12.71875 Z M 16.660156 9.117188 "/>
<path style=" stroke:none;fill-rule:evenodd;fill:rgb(0%,0%,0%);fill-opacity:1;" d="M 12.160156 10.019531 C 12.160156 8.820312 10.359375 8.820312 10.359375 10.019531 C 10.359375 11.21875 12.160156 11.21875 12.160156 10.019531 "/>
<path style=" stroke:none;fill-rule:evenodd;fill:rgb(0%,0%,0%);fill-opacity:1;" d="M 17.558594 10.019531 C 17.558594 8.820312 15.757812 8.820312 15.757812 10.019531 C 15.757812 11.21875 17.558594 11.21875 17.558594 10.019531 "/>
<path style=" stroke:none;fill-rule:evenodd;fill:rgb(0%,0%,0%);fill-opacity:1;" d="M 17.558594 11.820312 C 17.558594 10.617188 15.757812 10.617188 15.757812 11.820312 C 15.757812 13.019531 17.558594 13.019531 17.558594 11.820312 "/>
<path style=" stroke:none;fill-rule:evenodd;fill:rgb(0%,0%,0%);fill-opacity:1;" d="M 12.160156 11.820312 C 12.160156 10.617188 10.359375 10.617188 10.359375 11.820312 C 10.359375 13.019531 12.160156 13.019531 12.160156 11.820312 "/>
<path style=" stroke:none;fill-rule:evenodd;fill:rgb(0%,0%,0%);fill-opacity:1;" d="M 60.398438 9.917969 L 53.199219 9.917969 L 53.199219 11.71875 L 60.398438 11.71875 Z M 60.398438 9.917969 "/>
<path style=" stroke:none;fill-rule:evenodd;fill:rgb(0%,0%,0%);fill-opacity:1;" d="M 59.5 9.117188 L 54.101562 9.117188 L 54.101562 12.71875 L 59.5 12.71875 Z M 59.5 9.117188 "/>
<path style=" stroke:none;fill-rule:evenodd;fill:rgb(0%,0%,0%);fill-opacity:1;" d="M 55 10.019531 C 55 8.820312 53.199219 8.820312 53.199219 10.019531 C 53.199219 11.21875 55 11.21875 55 10.019531 "/>
<path style=" stroke:none;fill-rule:evenodd;fill:rgb(0%,0%,0%);fill-opacity:1;" d="M 60.398438 10.019531 C 60.398438 8.820312 58.597656 8.820312 58.597656 10.019531 C 58.597656 11.21875 60.398438 11.21875 60.398438 10.019531 "/>
<path style=" stroke:none;fill-rule:evenodd;fill:rgb(0%,0%,0%);fill-opacity:1;" d="M 60.398438 11.820312 C 60.398438 10.617188 58.597656 10.617188 58.597656 11.820312 C 58.597656 13.019531 60.398438 13.019531 60.398438 11.820312 "/>
<path style=" stroke:none;fill-rule:evenodd;fill:rgb(0%,0%,0%);fill-opacity:1;" d="M 55 11.820312 C 55 10.617188 53.199219 10.617188 53.199219 11.820312 C 53.199219 13.019531 55 13.019531 55 11.820312 "/>
<path style=" stroke:none;fill-rule:evenodd;fill:rgb(0%,0%,0%);fill-opacity:1;" d="M 60.398438 15.585938 L 53.199219 15.585938 L 53.199219 17.386719 L 60.398438 17.386719 Z M 60.398438 15.585938 "/>
<path style=" stroke:none;fill-rule:evenodd;fill:rgb(0%,0%,0%);fill-opacity:1;" d="M 59.5 14.789062 L 54.101562 14.789062 L 54.101562 18.390625 L 59.5 18.390625 Z M 59.5 14.789062 "/>
<path style=" stroke:none;fill-rule:evenodd;fill:rgb(0%,0%,0%);fill-opacity:1;" d="M 55 15.6875 C 55 14.488281 53.199219 14.488281 53.199219 15.6875 C 53.199219 16.886719 55 16.886719 55 15.6875 "/>
<path style=" stroke:none;fill-rule:evenodd;fill:rgb(0%,0%,0%);fill-opacity:1;" d="M 60.398438 15.6875 C 60.398438 14.488281 58.597656 14.488281 58.597656 15.6875 C 58.597656 16.886719 60.398438 16.886719 60.398438 15.6875 "/>
<path style=" stroke:none;fill-rule:evenodd;fill:rgb(0%,0%,0%);fill-opacity:1;" d="M 60.398438 17.488281 C 60.398438 16.289062 58.597656 16.289062 58.597656 17.488281 C 58.597656 18.6875 60.398438 18.6875 60.398438 17.488281 "/>
<path style=" stroke:none;fill-rule:evenodd;fill:rgb(0%,0%,0%);fill-opacity:1;" d="M 55 17.488281 C 55 16.289062 53.199219 16.289062 53.199219 17.488281 C 53.199219 18.6875 55 18.6875 55 17.488281 "/>
<path style=" stroke:none;fill-rule:evenodd;fill:rgb(0%,0%,0%);fill-opacity:1;" d="M 60.398438 21.257812 L 53.199219 21.257812 L 53.199219 23.058594 L 60.398438 23.058594 Z M 60.398438 21.257812 "/>
<path style=" stroke:none;fill-rule:evenodd;fill:rgb(0%,0%,0%);fill-opacity:1;" d="M 59.5 20.457031 L 54.101562 20.457031 L 54.101562 24.058594 L 59.5 24.058594 Z M 59.5 20.457031 "/>
<path style=" stroke:none;fill-rule:evenodd;fill:rgb(0%,0%,0%);fill-opacity:1;" d="M 55 21.355469 C 55 20.15625 53.199219 20.15625 53.199219 21.355469 C 53.199219 22.558594 55 22.558594 55 21.355469 "/>
<path style=" stroke:none;fill-rule:evenodd;fill:rgb(0%,0%,0%);fill-opacity:1;" d="M 60.398438 21.355469 C 60.398438 20.15625 58.597656 20.15625 58.597656 21.355469 C 58.597656 22.558594 60.398438 22.558594 60.398438 21.355469 "/>
<path style=" stroke:none;fill-rule:evenodd;fill:rgb(0%,0%,0%);fill-opacity:1;" d="M 60.398438 23.15625 C 60.398438 21.957031 58.597656 21.957031 58.597656 23.15625 C 58.597656 24.355469 60.398438 24.355469 60.398438 23.15625 "/>
<path style=" stroke:none;fill-rule:evenodd;fill:rgb(0%,0%,0%);fill-opacity:1;" d="M 55 23.15625 C 55 21.957031 53.199219 21.957031 53.199219 23.15625 C 53.199219 24.355469 55 24.355469 55 23.15625 "/>
<path style=" stroke:none;fill-rule:evenodd;fill:rgb(0%,0%,0%);fill-opacity:1;" d="M 60.398438 26.925781 L 53.199219 26.925781 L 53.199219 28.726562 L 60.398438 28.726562 Z M 60.398438 26.925781 "/>
<path style=" stroke:none;fill-rule:evenodd;fill:rgb(0%,0%,0%);fill-opacity:1;" d="M 59.5 26.125 L 54.101562 26.125 L 54.101562 29.726562 L 59.5 29.726562 Z M 59.5 26.125 "/>
<path style=" stroke:none;fill-rule:evenodd;fill:rgb(0%,0%,0%);fill-opacity:1;" d="M 55 27.027344 C 55 25.828125 53.199219 25.828125 53.199219 27.027344 C 53.199219 28.226562 55 28.226562 55 27.027344 "/>
<path style=" stroke:none;fill-rule:evenodd;fill:rgb(0%,0%,0%);fill-opacity:1;" d="M 60.398438 27.027344 C 60.398438 25.828125 58.597656 25.828125 58.597656 27.027344 C 58.597656 28.226562 60.398438 28.226562 60.398438 27.027344 "/>
<path style=" stroke:none;fill-rule:evenodd;fill:rgb(0%,0%,0%);fill-opacity:1;" d="M 60.398438 28.828125 C 60.398438 27.625 58.597656 27.625 58.597656 28.828125 C 58.597656 30.027344 60.398438 30.027344 60.398438 28.828125 "/>
<path style=" stroke:none;fill-rule:evenodd;fill:rgb(0%,0%,0%);fill-opacity:1;" d="M 55 28.828125 C 55 27.625 53.199219 27.625 53.199219 28.828125 C 53.199219 30.027344 55 30.027344 55 28.828125 "/>
<path style=" stroke:none;fill-rule:evenodd;fill:rgb(0%,0%,0%);fill-opacity:1;" d="M 60.398438 32.597656 L 53.199219 32.597656 L 53.199219 34.398438 L 60.398438 34.398438 Z M 60.398438 32.597656 "/>
<path style=" stroke:none;fill-rule:evenodd;fill:rgb(0%,0%,0%);fill-opacity:1;" d="M 59.5 31.796875 L 54.101562 31.796875 L 54.101562 35.398438 L 59.5 35.398438 Z M 59.5 31.796875 "/>
<path style=" stroke:none;fill-rule:evenodd;fill:rgb(0%,0%,0%);fill-opacity:1;" d="M 55 32.695312 C 55 31.496094 53.199219 31.496094 53.199219 32.695312 C 53.199219 33.894531 55 33.894531 55 32.695312 "/>
<path style=" stroke:none;fill-rule:evenodd;fill:rgb(0%,0%,0%);fill-opacity:1;" d="M 60.398438 32.695312 C 60.398438 31.496094 58.597656 31.496094 58.597656 32.695312 C 58.597656 33.894531 60.398438 33.894531 60.398438 32.695312 "/>
<path style=" stroke:none;fill-rule:evenodd;fill:rgb(0%,0%,0%);fill-opacity:1;" d="M 60.398438 34.496094 C 60.398438 33.296875 58.597656 33.296875 58.597656 34.496094 C 58.597656 35.695312 60.398438 35.695312 60.398438 34.496094 "/>
<path style=" stroke:none;fill-rule:evenodd;fill:rgb(0%,0%,0%);fill-opacity:1;" d="M 55 34.496094 C 55 33.296875 53.199219 33.296875 53.199219 34.496094 C 53.199219 35.695312 55 35.695312 55 34.496094 "/>
<path style=" stroke:none;fill-rule:evenodd;fill:rgb(0%,0%,0%);fill-opacity:1;" d="M 60.398438 38.265625 L 53.199219 38.265625 L 53.199219 40.066406 L 60.398438 40.066406 Z M 60.398438 38.265625 "/>
<path style=" stroke:none;fill-rule:evenodd;fill:rgb(0%,0%,0%);fill-opacity:1;" d="M 59.5 37.464844 L 54.101562 37.464844 L 54.101562 41.066406 L 59.5 41.066406 Z M 59.5 37.464844 "/>
<path style=" stroke:none;fill-rule:evenodd;fill:rgb(0%,0%,0%);fill-opacity:1;" d="M 55 38.363281 C 55 37.164062 53.199219 37.164062 53.199219 38.363281 C 53.199219 39.566406 55 39.566406 55 38.363281 "/>
<path style=" stroke:none;fill-rule:evenodd;fill:rgb(0%,0%,0%);fill-opacity:1;" d="M 60.398438 38.363281 C 60.398438 37.164062 58.597656 37.164062 58.597656 38.363281 C 58.597656 39.566406 60.398438 39.566406 60.398438 38.363281 "/>
<path style=" stroke:none;fill-rule:evenodd;fill:rgb(0%,0%,0%);fill-opacity:1;" d="M 60.398438 40.164062 C 60.398438 38.964844 58.597656 38.964844 58.597656 40.164062 C 58.597656 41.363281 60.398438 41.363281 60.398438 40.164062 "/>
<path style=" stroke:none;fill-rule:evenodd;fill:rgb(0%,0%,0%);fill-opacity:1;" d="M 55 40.164062 C 55 38.964844 53.199219 38.964844 53.199219 40.164062 C 53.199219 41.363281 55 41.363281 55 40.164062 "/>
<path style=" stroke:none;fill-rule:evenodd;fill:rgb(0%,0%,0%);fill-opacity:1;" d="M 60.398438 43.933594 L 53.199219 43.933594 L 53.199219 45.734375 L 60.398438 45.734375 Z M 60.398438 43.933594 "/>
<path style=" stroke:none;fill-rule:evenodd;fill:rgb(0%,0%,0%);fill-opacity:1;" d="M 59.5 43.132812 L 54.101562 43.132812 L 54.101562 46.734375 L 59.5 46.734375 Z M 59.5 43.132812 "/>
<path style=" stroke:none;fill-rule:evenodd;fill:rgb(0%,0%,0%);fill-opacity:1;" d="M 55 44.035156 C 55 42.835938 53.199219 42.835938 53.199219 44.035156 C 53.199219 45.234375 55 45.234375 55 44.035156 "/>
<path style=" stroke:none;fill-rule:evenodd;fill:rgb(0%,0%,0%);fill-opacity:1;" d="M 60.398438 44.035156 C 60.398438 42.835938 58.597656 42.835938 58.597656 44.035156 C 58.597656 45.234375 60.398438 45.234375 60.398438 44.035156 "/>
<path style=" stroke:none;fill-rule:evenodd;fill:rgb(0%,0%,0%);fill-opacity:1;" d="M 60.398438 45.835938 C 60.398438 44.632812 58.597656 44.632812 58.597656 45.835938 C 58.597656 47.035156 60.398438 47.035156 60.398438 45.835938 "/>
<path style=" stroke:none;fill-rule:evenodd;fill:rgb(0%,0%,0%);fill-opacity:1;" d="M 55 45.835938 C 55 44.632812 53.199219 44.632812 53.199219 45.835938 C 53.199219 47.035156 55 47.035156 55 45.835938 "/>
<path style=" stroke:none;fill-rule:evenodd;fill:rgb(0%,0%,0%);fill-opacity:1;" d="M 60.398438 49.605469 L 53.199219 49.605469 L 53.199219 51.40625 L 60.398438 51.40625 Z M 60.398438 49.605469 "/>
<path style=" stroke:none;fill-rule:evenodd;fill:rgb(0%,0%,0%);fill-opacity:1;" d="M 59.5 48.804688 L 54.101562 48.804688 L 54.101562 52.40625 L 59.5 52.40625 Z M 59.5 48.804688 "/>
<path style=" stroke:none;fill-rule:evenodd;fill:rgb(0%,0%,0%);fill-opacity:1;" d="M 55 49.703125 C 55 48.503906 53.199219 48.503906 53.199219 49.703125 C 53.199219 50.902344 55 50.902344 55 49.703125 "/>
<path style=" stroke:none;fill-rule:evenodd;fill:rgb(0%,0%,0%);fill-opacity:1;" d="M 60.398438 49.703125 C 60.398438 48.503906 58.597656 48.503906 58.597656 49.703125 C 58.597656 50.902344 60.398438 50.902344 60.398438 49.703125 "/>
<path style=" stroke:none;fill-rule:evenodd;fill:rgb(0%,0%,0%);fill-opacity:1;" d="M 60.398438 51.503906 C 60.398438 50.304688 58.597656 50.304688 58.597656 51.503906 C 58.597656 52.703125 60.398438 52.703125 60.398438 51.503906 "/>
<path style=" stroke:none;fill-rule:evenodd;fill:rgb(0%,0%,0%);fill-opacity:1;" d="M 55 51.503906 C 55 50.304688 53.199219 50.304688 53.199219 51.503906 C 53.199219 52.703125 55 52.703125 55 51.503906 "/>
<path style="fill:none;stroke-width:0.012;stroke-linecap:round;stroke-linejoin:miter;stroke:rgb(0%,0%,0%);stroke-opacity:1;stroke-miterlimit:10;" d="M 3.042272 3.449255 L 3.051984 3.459021 " transform="matrix(72,0,0,-72,-205.117823,265.362)"/>
<path style="fill:none;stroke-width:0.012;stroke-linecap:round;stroke-linejoin:miter;stroke:rgb(0%,0%,0%);stroke-opacity:1;stroke-miterlimit:10;" d="M 3.641719 3.523637 L 3.656747 3.538611 " transform="matrix(72,0,0,-72,-205.117823,265.362)"/>
<path style="fill:none;stroke-width:0.012;stroke-linecap:round;stroke-linejoin:miter;stroke:rgb(0%,0%,0%);stroke-opacity:1;stroke-miterlimit:10;" d="M 3.038041 3.538611 L 3.042706 3.533945 " transform="matrix(72,0,0,-72,-205.117823,265.362)"/>
<path style="fill:none;stroke-width:0.012;stroke-linecap:round;stroke-linejoin:miter;stroke:rgb(0%,0%,0%);stroke-opacity:1;stroke-miterlimit:10;" d="M 3.641719 2.98273 L 3.650725 2.98273 " transform="matrix(72,0,0,-72,-205.117823,265.362)"/>
<path style="fill:none;stroke-width:0.012;stroke-linecap:round;stroke-linejoin:miter;stroke:rgb(0%,0%,0%);stroke-opacity:1;stroke-miterlimit:10;" d="M 3.720115 3.343298 L 3.733082 3.343298 " transform="matrix(72,0,0,-72,-205.117823,265.362)"/>
<path style="fill:none;stroke-width:0.012;stroke-linecap:round;stroke-linejoin:miter;stroke:rgb(0%,0%,0%);stroke-opacity:1;stroke-miterlimit:10;" d="M 3.02974 2.98273 L 3.042706 2.98273 " transform="matrix(72,0,0,-72,-205.117823,265.362)"/>
<path style="fill:none;stroke-width:0.012;stroke-linecap:round;stroke-linejoin:miter;stroke:rgb(0%,0%,0%);stroke-opacity:1;stroke-miterlimit:10;" d="M 3.011239 2.964229 L 3.02974 2.98273 " transform="matrix(72,0,0,-72,-205.117823,265.362)"/>
<path style="fill:none;stroke-width:0.012;stroke-linecap:round;stroke-linejoin:miter;stroke:rgb(0%,0%,0%);stroke-opacity:1;stroke-miterlimit:10;" d="M 3.011239 2.908836 L 3.011239 2.964229 " transform="matrix(72,0,0,-72,-205.117823,265.362)"/>
<path style="fill:none;stroke-width:0.012;stroke-linecap:round;stroke-linejoin:miter;stroke:rgb(0%,0%,0%);stroke-opacity:1;stroke-miterlimit:10;" d="M 2.945701 2.843298 L 3.011239 2.908836 " transform="matrix(72,0,0,-72,-205.117823,265.362)"/>
<path style="fill:none;stroke-width:0.012;stroke-linecap:round;stroke-linejoin:miter;stroke:rgb(0%,0%,0%);stroke-opacity:1;stroke-miterlimit:10;" d="M 2.951615 3.449255 L 3.042272 3.449255 " transform="matrix(72,0,0,-72,-205.117823,265.362)"/>
<path style="fill:none;stroke-width:0.012;stroke-linecap:round;stroke-linejoin:miter;stroke:rgb(0%,0%,0%);stroke-opacity:1;stroke-miterlimit:10;" d="M 2.945701 3.443287 L 2.963822 3.425221 " transform="matrix(72,0,0,-72,-205.117823,265.362)"/>
<path style="fill:none;stroke-width:0.012;stroke-linecap:round;stroke-linejoin:miter;stroke:rgb(0%,0%,0%);stroke-opacity:1;stroke-miterlimit:10;" d="M 2.945701 3.443287 L 2.951615 3.449255 " transform="matrix(72,0,0,-72,-205.117823,265.362)"/>
<path style="fill:none;stroke-width:0.012;stroke-linecap:round;stroke-linejoin:miter;stroke:rgb(0%,0%,0%);stroke-opacity:1;stroke-miterlimit:10;" d="M 3.021276 3.061506 L 3.042706 3.061506 " transform="matrix(72,0,0,-72,-205.117823,265.362)"/>
<path style="fill:none;stroke-width:0.012;stroke-linecap:round;stroke-linejoin:miter;stroke:rgb(0%,0%,0%);stroke-opacity:1;stroke-miterlimit:10;" d="M 2.945701 3.243309 L 2.985089 3.282751 " transform="matrix(72,0,0,-72,-205.117823,265.362)"/>
<path style="fill:none;stroke-width:0.012;stroke-linecap:round;stroke-linejoin:miter;stroke:rgb(0%,0%,0%);stroke-opacity:1;stroke-miterlimit:10;" d="M 3.643672 3.449255 L 3.727168 3.449255 " transform="matrix(72,0,0,-72,-205.117823,265.362)"/>
<path style="fill:none;stroke-width:0.012;stroke-linecap:round;stroke-linejoin:miter;stroke:rgb(0%,0%,0%);stroke-opacity:1;stroke-miterlimit:10;" d="M 3.637758 3.455223 L 3.643672 3.449255 " transform="matrix(72,0,0,-72,-205.117823,265.362)"/>
<path style="fill:none;stroke-width:0.012;stroke-linecap:round;stroke-linejoin:miter;stroke:rgb(0%,0%,0%);stroke-opacity:1;stroke-miterlimit:10;" d="M 3.727168 3.449255 L 3.733082 3.443287 " transform="matrix(72,0,0,-72,-205.117823,265.362)"/>
<path style="fill:none;stroke-width:0.012;stroke-linecap:round;stroke-linejoin:miter;stroke:rgb(0%,0%,0%);stroke-opacity:1;stroke-miterlimit:10;" d="M 3.672969 3.290998 L 3.720658 3.243309 " transform="matrix(72,0,0,-72,-205.117823,265.362)"/>
<path style="fill:none;stroke-width:0.012;stroke-linecap:round;stroke-linejoin:miter;stroke:rgb(0%,0%,0%);stroke-opacity:1;stroke-miterlimit:10;" d="M 2.945701 3.543331 L 2.950367 3.538611 " transform="matrix(72,0,0,-72,-205.117823,265.362)"/>
<path style="fill:none;stroke-width:0.012;stroke-linecap:round;stroke-linejoin:miter;stroke:rgb(0%,0%,0%);stroke-opacity:1;stroke-miterlimit:10;" d="M 3.01954 3.218949 L 3.042706 3.218949 " transform="matrix(72,0,0,-72,-205.117823,265.362)"/>
<path style="fill:none;stroke-width:0.012;stroke-linecap:round;stroke-linejoin:miter;stroke:rgb(0%,0%,0%);stroke-opacity:1;stroke-miterlimit:10;" d="M 2.945701 3.14511 L 3.01954 3.218949 " transform="matrix(72,0,0,-72,-205.117823,265.362)"/>
<path style="fill:none;stroke-width:0.012;stroke-linecap:round;stroke-linejoin:miter;stroke:rgb(0%,0%,0%);stroke-opacity:1;stroke-miterlimit:10;" d="M 3.652732 3.361473 L 3.70194 3.361473 " transform="matrix(72,0,0,-72,-205.117823,265.362)"/>
<path style="fill:none;stroke-width:0.012;stroke-linecap:round;stroke-linejoin:miter;stroke:rgb(0%,0%,0%);stroke-opacity:1;stroke-miterlimit:10;" d="M 3.656747 3.538611 L 3.728416 3.538611 " transform="matrix(72,0,0,-72,-205.117823,265.362)"/>
<path style="fill:none;stroke-width:0.012;stroke-linecap:round;stroke-linejoin:miter;stroke:rgb(0%,0%,0%);stroke-opacity:1;stroke-miterlimit:10;" d="M 2.950367 3.538611 L 3.038041 3.538611 " transform="matrix(72,0,0,-72,-205.117823,265.362)"/>
<path style="fill:none;stroke-width:0.012;stroke-linecap:round;stroke-linejoin:miter;stroke:rgb(0%,0%,0%);stroke-opacity:1;stroke-miterlimit:10;" d="M 3.728416 3.538611 L 3.733082 3.543331 " transform="matrix(72,0,0,-72,-205.117823,265.362)"/>
<path style="fill:none;stroke-width:0.012;stroke-linecap:round;stroke-linejoin:miter;stroke:rgb(0%,0%,0%);stroke-opacity:1;stroke-miterlimit:10;" d="M 3.637758 3.376447 L 3.652732 3.361473 " transform="matrix(72,0,0,-72,-205.117823,265.362)"/>
<path style="fill:none;stroke-width:0.012;stroke-linecap:round;stroke-linejoin:miter;stroke:rgb(0%,0%,0%);stroke-opacity:1;stroke-miterlimit:10;" d="M 3.643998 3.290998 L 3.672969 3.290998 " transform="matrix(72,0,0,-72,-205.117823,265.362)"/>
<path style="fill:none;stroke-width:0.012;stroke-linecap:round;stroke-linejoin:miter;stroke:rgb(0%,0%,0%);stroke-opacity:1;stroke-miterlimit:10;" d="M 3.662715 3.140227 L 3.723913 3.079084 " transform="matrix(72,0,0,-72,-205.117823,265.362)"/>
<path style="fill:none;stroke-width:0.012;stroke-linecap:round;stroke-linejoin:miter;stroke:rgb(0%,0%,0%);stroke-opacity:1;stroke-miterlimit:10;" d="M 3.723913 3.0525 L 3.733082 3.043331 " transform="matrix(72,0,0,-72,-205.117823,265.362)"/>
<path style="fill:none;stroke-width:0.012;stroke-linecap:round;stroke-linejoin:miter;stroke:rgb(0%,0%,0%);stroke-opacity:1;stroke-miterlimit:10;" d="M 3.637758 3.140227 L 3.662715 3.140227 " transform="matrix(72,0,0,-72,-205.117823,265.362)"/>
<path style="fill:none;stroke-width:0.012;stroke-linecap:round;stroke-linejoin:miter;stroke:rgb(0%,0%,0%);stroke-opacity:1;stroke-miterlimit:10;" d="M 3.650725 2.98273 L 3.669225 2.964229 " transform="matrix(72,0,0,-72,-205.117823,265.362)"/>
<path style="fill:none;stroke-width:0.012;stroke-linecap:round;stroke-linejoin:miter;stroke:rgb(0%,0%,0%);stroke-opacity:1;stroke-miterlimit:10;" d="M 2.991708 3.024234 L 2.991708 3.031937 " transform="matrix(72,0,0,-72,-205.117823,265.362)"/>
<path style="fill:none;stroke-width:0.012;stroke-linecap:round;stroke-linejoin:miter;stroke:rgb(0%,0%,0%);stroke-opacity:1;stroke-miterlimit:10;" d="M 2.945701 2.949092 L 2.976734 2.980125 " transform="matrix(72,0,0,-72,-205.117823,265.362)"/>
<path style="fill:none;stroke-width:0.012;stroke-linecap:round;stroke-linejoin:miter;stroke:rgb(0%,0%,0%);stroke-opacity:1;stroke-miterlimit:10;" d="M 2.991708 3.031937 L 3.021276 3.061506 " transform="matrix(72,0,0,-72,-205.117823,265.362)"/>
<path style="fill:none;stroke-width:0.012;stroke-linecap:round;stroke-linejoin:miter;stroke:rgb(0%,0%,0%);stroke-opacity:1;stroke-miterlimit:10;" d="M 2.976734 3.009314 L 2.991708 3.024234 " transform="matrix(72,0,0,-72,-205.117823,265.362)"/>
<path style="fill:none;stroke-width:0.012;stroke-linecap:round;stroke-linejoin:miter;stroke:rgb(0%,0%,0%);stroke-opacity:1;stroke-miterlimit:10;" d="M 2.976734 2.980125 L 2.976734 3.009314 " transform="matrix(72,0,0,-72,-205.117823,265.362)"/>
<path style="fill:none;stroke-width:0.012;stroke-linecap:round;stroke-linejoin:miter;stroke:rgb(0%,0%,0%);stroke-opacity:1;stroke-miterlimit:10;" d="M 2.945701 2.943287 L 2.945701 2.949092 " transform="matrix(72,0,0,-72,-205.117823,265.362)"/>
<path style="fill:none;stroke-width:0.012;stroke-linecap:round;stroke-linejoin:miter;stroke:rgb(0%,0%,0%);stroke-opacity:1;stroke-miterlimit:10;" d="M 3.669225 2.907155 L 3.733082 2.843298 " transform="matrix(72,0,0,-72,-205.117823,265.362)"/>
<path style="fill:none;stroke-width:0.012;stroke-linecap:round;stroke-linejoin:miter;stroke:rgb(0%,0%,0%);stroke-opacity:1;stroke-miterlimit:10;" d="M 3.669225 2.907155 L 3.669225 2.964229 " transform="matrix(72,0,0,-72,-205.117823,265.362)"/>
<path style="fill:none;stroke-width:0.012;stroke-linecap:round;stroke-linejoin:miter;stroke:rgb(0%,0%,0%);stroke-opacity:1;stroke-miterlimit:10;" d="M 3.723913 3.0525 L 3.723913 3.079084 " transform="matrix(72,0,0,-72,-205.117823,265.362)"/>
<path style="fill:none;stroke-width:0.012;stroke-linecap:round;stroke-linejoin:miter;stroke:rgb(0%,0%,0%);stroke-opacity:1;stroke-miterlimit:10;" d="M 3.720658 3.243309 L 3.733082 3.243309 " transform="matrix(72,0,0,-72,-205.117823,265.362)"/>
<path style="fill:none;stroke-width:0.012;stroke-linecap:round;stroke-linejoin:miter;stroke:rgb(0%,0%,0%);stroke-opacity:1;stroke-miterlimit:10;" d="M 3.70194 3.361473 L 3.720115 3.343298 " transform="matrix(72,0,0,-72,-205.117823,265.362)"/>
<path style="fill:none;stroke-width:0.012;stroke-linecap:round;stroke-linejoin:miter;stroke:rgb(0%,0%,0%);stroke-opacity:1;stroke-miterlimit:10;" d="M 2.945701 3.14332 L 2.945701 3.14511 " transform="matrix(72,0,0,-72,-205.117823,265.362)"/>
<path style="fill:none;stroke-width:0.012;stroke-linecap:round;stroke-linejoin:miter;stroke:rgb(0%,0%,0%);stroke-opacity:1;stroke-miterlimit:10;" d="M 2.985089 3.282751 L 3.027732 3.282751 " transform="matrix(72,0,0,-72,-205.117823,265.362)"/>
<path style="fill:none;stroke-width:0.012;stroke-linecap:round;stroke-linejoin:miter;stroke:rgb(0%,0%,0%);stroke-opacity:1;stroke-miterlimit:10;" d="M 3.027732 3.282751 L 3.042706 3.297725 " transform="matrix(72,0,0,-72,-205.117823,265.362)"/>
<path style="fill:none;stroke-width:0.02;stroke-linecap:round;stroke-linejoin:miter;stroke:rgb(0%,0%,0%);stroke-opacity:1;stroke-miterlimit:10;" d="M 3.259991 2.747975 L 3.160057 2.747975 " transform="matrix(72,0,0,-72,-205.117823,265.362)"/>
<path style="fill:none;stroke-width:0.02;stroke-linecap:round;stroke-linejoin:miter;stroke:rgb(0%,0%,0%);stroke-opacity:1;stroke-miterlimit:10;" d="M 3.160057 2.747975 L 3.193368 2.781341 " transform="matrix(72,0,0,-72,-205.117823,265.362)"/>
<path style="fill:none;stroke-width:0.02;stroke-linecap:round;stroke-linejoin:miter;stroke:rgb(0%,0%,0%);stroke-opacity:1;stroke-miterlimit:10;" d="M 3.193368 2.781341 L 3.160057 2.814652 " transform="matrix(72,0,0,-72,-205.117823,265.362)"/>
<path style="fill:none;stroke-width:0.02;stroke-linecap:round;stroke-linejoin:miter;stroke:rgb(0%,0%,0%);stroke-opacity:1;stroke-miterlimit:10;" d="M 3.160057 2.814652 L 3.259991 2.814652 " transform="matrix(72,0,0,-72,-205.117823,265.362)"/>
<path style="fill:none;stroke-width:0.02;stroke-linecap:round;stroke-linejoin:miter;stroke:rgb(0%,0%,0%);stroke-opacity:1;stroke-miterlimit:10;" d="M 3.160057 2.847964 L 3.259991 2.847964 " transform="matrix(72,0,0,-72,-205.117823,265.362)"/>
<path style="fill:none;stroke-width:0.02;stroke-linecap:round;stroke-linejoin:miter;stroke:rgb(0%,0%,0%);stroke-opacity:1;stroke-miterlimit:10;" d="M 3.259991 2.847964 L 3.22668 2.847964 " transform="matrix(72,0,0,-72,-205.117823,265.362)"/>
<path style="fill:none;stroke-width:0.02;stroke-linecap:round;stroke-linejoin:miter;stroke:rgb(0%,0%,0%);stroke-opacity:1;stroke-miterlimit:10;" d="M 3.22668 2.847964 L 3.160057 2.914587 " transform="matrix(72,0,0,-72,-205.117823,265.362)"/>
<path style="fill:none;stroke-width:0.02;stroke-linecap:round;stroke-linejoin:miter;stroke:rgb(0%,0%,0%);stroke-opacity:1;stroke-miterlimit:10;" d="M 3.160057 2.914587 L 3.210024 2.86462 " transform="matrix(72,0,0,-72,-205.117823,265.362)"/>
<path style="fill:none;stroke-width:0.02;stroke-linecap:round;stroke-linejoin:miter;stroke:rgb(0%,0%,0%);stroke-opacity:1;stroke-miterlimit:10;" d="M 3.210024 2.86462 L 3.259991 2.914587 " transform="matrix(72,0,0,-72,-205.117823,265.362)"/>
<path style="fill:none;stroke-width:0.02;stroke-linecap:round;stroke-linejoin:miter;stroke:rgb(0%,0%,0%);stroke-opacity:1;stroke-miterlimit:10;" d="M 3.176712 3.014576 L 3.160057 2.997921 " transform="matrix(72,0,0,-72,-205.117823,265.362)"/>
<path style="fill:none;stroke-width:0.02;stroke-linecap:round;stroke-linejoin:miter;stroke:rgb(0%,0%,0%);stroke-opacity:1;stroke-miterlimit:10;" d="M 3.160057 2.997921 L 3.160057 2.964609 " transform="matrix(72,0,0,-72,-205.117823,265.362)"/>
<path style="fill:none;stroke-width:0.02;stroke-linecap:round;stroke-linejoin:miter;stroke:rgb(0%,0%,0%);stroke-opacity:1;stroke-miterlimit:10;" d="M 3.160057 2.964609 L 3.176712 2.947953 " transform="matrix(72,0,0,-72,-205.117823,265.362)"/>
<path style="fill:none;stroke-width:0.02;stroke-linecap:round;stroke-linejoin:miter;stroke:rgb(0%,0%,0%);stroke-opacity:1;stroke-miterlimit:10;" d="M 3.176712 2.947953 L 3.193368 2.947953 " transform="matrix(72,0,0,-72,-205.117823,265.362)"/>
<path style="fill:none;stroke-width:0.02;stroke-linecap:round;stroke-linejoin:miter;stroke:rgb(0%,0%,0%);stroke-opacity:1;stroke-miterlimit:10;" d="M 3.193368 2.947953 L 3.210024 2.964609 " transform="matrix(72,0,0,-72,-205.117823,265.362)"/>
<path style="fill:none;stroke-width:0.02;stroke-linecap:round;stroke-linejoin:miter;stroke:rgb(0%,0%,0%);stroke-opacity:1;stroke-miterlimit:10;" d="M 3.210024 2.964609 L 3.210024 2.997921 " transform="matrix(72,0,0,-72,-205.117823,265.362)"/>
<path style="fill:none;stroke-width:0.02;stroke-linecap:round;stroke-linejoin:miter;stroke:rgb(0%,0%,0%);stroke-opacity:1;stroke-miterlimit:10;" d="M 3.210024 2.997921 L 3.22668 3.014576 " transform="matrix(72,0,0,-72,-205.117823,265.362)"/>
<path style="fill:none;stroke-width:0.02;stroke-linecap:round;stroke-linejoin:miter;stroke:rgb(0%,0%,0%);stroke-opacity:1;stroke-miterlimit:10;" d="M 3.22668 3.014576 L 3.243336 3.014576 " transform="matrix(72,0,0,-72,-205.117823,265.362)"/>
<path style="fill:none;stroke-width:0.02;stroke-linecap:round;stroke-linejoin:miter;stroke:rgb(0%,0%,0%);stroke-opacity:1;stroke-miterlimit:10;" d="M 3.243336 3.014576 L 3.259991 2.997921 " transform="matrix(72,0,0,-72,-205.117823,265.362)"/>
<path style="fill:none;stroke-width:0.02;stroke-linecap:round;stroke-linejoin:miter;stroke:rgb(0%,0%,0%);stroke-opacity:1;stroke-miterlimit:10;" d="M 3.259991 2.997921 L 3.259991 2.964609 " transform="matrix(72,0,0,-72,-205.117823,265.362)"/>
<path style="fill:none;stroke-width:0.02;stroke-linecap:round;stroke-linejoin:miter;stroke:rgb(0%,0%,0%);stroke-opacity:1;stroke-miterlimit:10;" d="M 3.259991 2.964609 L 3.243336 2.947953 " transform="matrix(72,0,0,-72,-205.117823,265.362)"/>
<path style="fill:none;stroke-width:0.02;stroke-linecap:round;stroke-linejoin:miter;stroke:rgb(0%,0%,0%);stroke-opacity:1;stroke-miterlimit:10;" d="M 3.160057 3.147877 L 3.259991 3.147877 " transform="matrix(72,0,0,-72,-205.117823,265.362)"/>
<path style="fill:none;stroke-width:0.02;stroke-linecap:round;stroke-linejoin:miter;stroke:rgb(0%,0%,0%);stroke-opacity:1;stroke-miterlimit:10;" d="M 3.259991 3.147877 L 3.22668 3.181189 " transform="matrix(72,0,0,-72,-205.117823,265.362)"/>
<path style="fill:none;stroke-width:0.02;stroke-linecap:round;stroke-linejoin:miter;stroke:rgb(0%,0%,0%);stroke-opacity:1;stroke-miterlimit:10;" d="M 3.22668 3.181189 L 3.259991 3.2145 " transform="matrix(72,0,0,-72,-205.117823,265.362)"/>
<path style="fill:none;stroke-width:0.02;stroke-linecap:round;stroke-linejoin:miter;stroke:rgb(0%,0%,0%);stroke-opacity:1;stroke-miterlimit:10;" d="M 3.259991 3.2145 L 3.160057 3.2145 " transform="matrix(72,0,0,-72,-205.117823,265.362)"/>
<path style="fill:none;stroke-width:0.02;stroke-linecap:round;stroke-linejoin:miter;stroke:rgb(0%,0%,0%);stroke-opacity:1;stroke-miterlimit:10;" d="M 3.160057 3.247812 L 3.160057 3.281178 " transform="matrix(72,0,0,-72,-205.117823,265.362)"/>
<path style="fill:none;stroke-width:0.02;stroke-linecap:round;stroke-linejoin:miter;stroke:rgb(0%,0%,0%);stroke-opacity:1;stroke-miterlimit:10;" d="M 3.160057 3.281178 L 3.160057 3.264522 " transform="matrix(72,0,0,-72,-205.117823,265.362)"/>
<path style="fill:none;stroke-width:0.02;stroke-linecap:round;stroke-linejoin:miter;stroke:rgb(0%,0%,0%);stroke-opacity:1;stroke-miterlimit:10;" d="M 3.160057 3.264522 L 3.259991 3.264522 " transform="matrix(72,0,0,-72,-205.117823,265.362)"/>
<path style="fill:none;stroke-width:0.02;stroke-linecap:round;stroke-linejoin:miter;stroke:rgb(0%,0%,0%);stroke-opacity:1;stroke-miterlimit:10;" d="M 3.259991 3.264522 L 3.259991 3.247812 " transform="matrix(72,0,0,-72,-205.117823,265.362)"/>
<path style="fill:none;stroke-width:0.02;stroke-linecap:round;stroke-linejoin:miter;stroke:rgb(0%,0%,0%);stroke-opacity:1;stroke-miterlimit:10;" d="M 3.259991 3.247812 L 3.259991 3.281178 " transform="matrix(72,0,0,-72,-205.117823,265.362)"/>
<path style="fill:none;stroke-width:0.02;stroke-linecap:round;stroke-linejoin:miter;stroke:rgb(0%,0%,0%);stroke-opacity:1;stroke-miterlimit:10;" d="M 3.160057 3.397769 L 3.160057 3.331145 " transform="matrix(72,0,0,-72,-205.117823,265.362)"/>
<path style="fill:none;stroke-width:0.02;stroke-linecap:round;stroke-linejoin:miter;stroke:rgb(0%,0%,0%);stroke-opacity:1;stroke-miterlimit:10;" d="M 3.160057 3.331145 L 3.210024 3.331145 " transform="matrix(72,0,0,-72,-205.117823,265.362)"/>
<path style="fill:none;stroke-width:0.02;stroke-linecap:round;stroke-linejoin:miter;stroke:rgb(0%,0%,0%);stroke-opacity:1;stroke-miterlimit:10;" d="M 3.210024 3.331145 L 3.210024 3.364457 " transform="matrix(72,0,0,-72,-205.117823,265.362)"/>
<path style="fill:none;stroke-width:0.02;stroke-linecap:round;stroke-linejoin:miter;stroke:rgb(0%,0%,0%);stroke-opacity:1;stroke-miterlimit:10;" d="M 3.210024 3.364457 L 3.210024 3.331145 " transform="matrix(72,0,0,-72,-205.117823,265.362)"/>
<path style="fill:none;stroke-width:0.02;stroke-linecap:round;stroke-linejoin:miter;stroke:rgb(0%,0%,0%);stroke-opacity:1;stroke-miterlimit:10;" d="M 3.210024 3.331145 L 3.259991 3.331145 " transform="matrix(72,0,0,-72,-205.117823,265.362)"/>
<path style="fill:none;stroke-width:0.02;stroke-linecap:round;stroke-linejoin:miter;stroke:rgb(0%,0%,0%);stroke-opacity:1;stroke-miterlimit:10;" d="M 3.160057 3.431135 L 3.160057 3.464446 " transform="matrix(72,0,0,-72,-205.117823,265.362)"/>
<path style="fill:none;stroke-width:0.02;stroke-linecap:round;stroke-linejoin:miter;stroke:rgb(0%,0%,0%);stroke-opacity:1;stroke-miterlimit:10;" d="M 3.160057 3.464446 L 3.160057 3.44779 " transform="matrix(72,0,0,-72,-205.117823,265.362)"/>
<path style="fill:none;stroke-width:0.02;stroke-linecap:round;stroke-linejoin:miter;stroke:rgb(0%,0%,0%);stroke-opacity:1;stroke-miterlimit:10;" d="M 3.160057 3.44779 L 3.259991 3.44779 " transform="matrix(72,0,0,-72,-205.117823,265.362)"/>
<path style="fill:none;stroke-width:0.02;stroke-linecap:round;stroke-linejoin:miter;stroke:rgb(0%,0%,0%);stroke-opacity:1;stroke-miterlimit:10;" d="M 3.259991 3.44779 L 3.259991 3.431135 " transform="matrix(72,0,0,-72,-205.117823,265.362)"/>
<path style="fill:none;stroke-width:0.02;stroke-linecap:round;stroke-linejoin:miter;stroke:rgb(0%,0%,0%);stroke-opacity:1;stroke-miterlimit:10;" d="M 3.259991 3.431135 L 3.259991 3.464446 " transform="matrix(72,0,0,-72,-205.117823,265.362)"/>
<path style=" stroke:none;fill-rule:evenodd;fill:rgb(0%,0%,0%);fill-opacity:1;" d="M 4.8125 62.804688 L 9.132812 62.804688 L 9.132812 58.484375 L 4.8125 58.484375 Z M 4.8125 62.804688 "/>
<path style=" stroke:none;fill-rule:evenodd;fill:rgb(0%,0%,0%);fill-opacity:1;" d="M 61.503906 62.804688 L 65.824219 62.804688 L 65.824219 58.484375 L 61.503906 58.484375 Z M 61.503906 62.804688 "/>
<path style=" stroke:none;fill-rule:evenodd;fill:rgb(0%,0%,0%);fill-opacity:1;" d="M 9.132812 53.445312 C 9.132812 50.5625 4.8125 50.5625 4.8125 53.445312 C 4.8125 56.324219 9.132812 56.324219 9.132812 53.445312 "/>
<path style=" stroke:none;fill-rule:evenodd;fill:rgb(0%,0%,0%);fill-opacity:1;" d="M 9.132812 46.242188 C 9.132812 43.363281 4.8125 43.363281 4.8125 46.242188 C 4.8125 49.125 9.132812 49.125 9.132812 46.242188 "/>
<path style=" stroke:none;fill-rule:evenodd;fill:rgb(0%,0%,0%);fill-opacity:1;" d="M 9.132812 39.042969 C 9.132812 36.164062 4.8125 36.164062 4.8125 39.042969 C 4.8125 41.925781 9.132812 41.925781 9.132812 39.042969 "/>
<path style=" stroke:none;fill-rule:evenodd;fill:rgb(0%,0%,0%);fill-opacity:1;" d="M 9.132812 31.84375 C 9.132812 28.964844 4.8125 28.964844 4.8125 31.84375 C 4.8125 34.722656 9.132812 34.722656 9.132812 31.84375 "/>
<path style=" stroke:none;fill-rule:evenodd;fill:rgb(0%,0%,0%);fill-opacity:1;" d="M 9.132812 24.644531 C 9.132812 21.765625 4.8125 21.765625 4.8125 24.644531 C 4.8125 27.523438 9.132812 27.523438 9.132812 24.644531 "/>
<path style=" stroke:none;fill-rule:evenodd;fill:rgb(0%,0%,0%);fill-opacity:1;" d="M 9.132812 17.445312 C 9.132812 14.5625 4.8125 14.5625 4.8125 17.445312 C 4.8125 20.324219 9.132812 20.324219 9.132812 17.445312 "/>
<path style=" stroke:none;fill-rule:evenodd;fill:rgb(0%,0%,0%);fill-opacity:1;" d="M 9.132812 10.242188 C 9.132812 7.363281 4.8125 7.363281 4.8125 10.242188 C 4.8125 13.125 9.132812 13.125 9.132812 10.242188 "/>
<path style=" stroke:none;fill-rule:evenodd;fill:rgb(0%,0%,0%);fill-opacity:1;" d="M 65.824219 53.445312 C 65.824219 50.5625 61.503906 50.5625 61.503906 53.445312 C 61.503906 56.324219 65.824219 56.324219 65.824219 53.445312 "/>
<path style=" stroke:none;fill-rule:evenodd;fill:rgb(0%,0%,0%);fill-opacity:1;" d="M 65.824219 46.242188 C 65.824219 43.363281 61.503906 43.363281 61.503906 46.242188 C 61.503906 49.125 65.824219 49.125 65.824219 46.242188 "/>
<path style=" stroke:none;fill-rule:evenodd;fill:rgb(0%,0%,0%);fill-opacity:1;" d="M 65.824219 39.042969 C 65.824219 36.164062 61.503906 36.164062 61.503906 39.042969 C 61.503906 41.925781 65.824219 41.925781 65.824219 39.042969 "/>
<path style=" stroke:none;fill-rule:evenodd;fill:rgb(0%,0%,0%);fill-opacity:1;" d="M 65.824219 31.84375 C 65.824219 28.964844 61.503906 28.964844 61.503906 31.84375 C 61.503906 34.722656 65.824219 34.722656 65.824219 31.84375 "/>
<path style=" stroke:none;fill-rule:evenodd;fill:rgb(0%,0%,0%);fill-opacity:1;" d="M 65.824219 24.644531 C 65.824219 21.765625 61.503906 21.765625 61.503906 24.644531 C 61.503906 27.523438 65.824219 27.523438 65.824219 24.644531 "/>
<path style=" stroke:none;fill-rule:evenodd;fill:rgb(0%,0%,0%);fill-opacity:1;" d="M 65.824219 17.445312 C 65.824219 14.5625 61.503906 14.5625 61.503906 17.445312 C 61.503906 20.324219 65.824219 20.324219 65.824219 17.445312 "/>
<path style=" stroke:none;fill-rule:evenodd;fill:rgb(0%,0%,0%);fill-opacity:1;" d="M 65.824219 10.242188 C 65.824219 7.363281 61.503906 7.363281 61.503906 10.242188 C 61.503906 13.125 65.824219 13.125 65.824219 10.242188 "/>
<path style=" stroke:none;fill-rule:evenodd;fill:rgb(100%,100%,100%);fill-opacity:1;" d="M 8.265625 60.644531 C 8.265625 58.914062 5.675781 58.914062 5.675781 60.644531 C 5.675781 62.371094 8.265625 62.371094 8.265625 60.644531 "/>
<path style=" stroke:none;fill-rule:evenodd;fill:rgb(100%,100%,100%);fill-opacity:1;" d="M 8.265625 53.445312 C 8.265625 51.714844 5.675781 51.714844 5.675781 53.445312 C 5.675781 55.171875 8.265625 55.171875 8.265625 53.445312 "/>
<path style=" stroke:none;fill-rule:evenodd;fill:rgb(100%,100%,100%);fill-opacity:1;" d="M 8.265625 46.242188 C 8.265625 44.515625 5.675781 44.515625 5.675781 46.242188 C 5.675781 47.972656 8.265625 47.972656 8.265625 46.242188 "/>
<path style=" stroke:none;fill-rule:evenodd;fill:rgb(100%,100%,100%);fill-opacity:1;" d="M 8.265625 39.042969 C 8.265625 37.316406 5.675781 37.316406 5.675781 39.042969 C 5.675781 40.773438 8.265625 40.773438 8.265625 39.042969 "/>
<path style=" stroke:none;fill-rule:evenodd;fill:rgb(100%,100%,100%);fill-opacity:1;" d="M 8.265625 31.84375 C 8.265625 30.117188 5.675781 30.117188 5.675781 31.84375 C 5.675781 33.570312 8.265625 33.570312 8.265625 31.84375 "/>
<path style=" stroke:none;fill-rule:evenodd;fill:rgb(100%,100%,100%);fill-opacity:1;" d="M 8.265625 24.644531 C 8.265625 22.914062 5.675781 22.914062 5.675781 24.644531 C 5.675781 26.371094 8.265625 26.371094 8.265625 24.644531 "/>
<path style=" stroke:none;fill-rule:evenodd;fill:rgb(100%,100%,100%);fill-opacity:1;" d="M 8.265625 17.445312 C 8.265625 15.714844 5.675781 15.714844 5.675781 17.445312 C 5.675781 19.171875 8.265625 19.171875 8.265625 17.445312 "/>
<path style=" stroke:none;fill-rule:evenodd;fill:rgb(100%,100%,100%);fill-opacity:1;" d="M 8.265625 10.242188 C 8.265625 8.515625 5.675781 8.515625 5.675781 10.242188 C 5.675781 11.972656 8.265625 11.972656 8.265625 10.242188 "/>
<path style=" stroke:none;fill-rule:evenodd;fill:rgb(100%,100%,100%);fill-opacity:1;" d="M 64.960938 60.644531 C 64.960938 58.914062 62.367188 58.914062 62.367188 60.644531 C 62.367188 62.371094 64.960938 62.371094 64.960938 60.644531 "/>
<path style=" stroke:none;fill-rule:evenodd;fill:rgb(100%,100%,100%);fill-opacity:1;" d="M 64.960938 53.445312 C 64.960938 51.714844 62.367188 51.714844 62.367188 53.445312 C 62.367188 55.171875 64.960938 55.171875 64.960938 53.445312 "/>
<path style=" stroke:none;fill-rule:evenodd;fill:rgb(100%,100%,100%);fill-opacity:1;" d="M 64.960938 46.242188 C 64.960938 44.515625 62.367188 44.515625 62.367188 46.242188 C 62.367188 47.972656 64.960938 47.972656 64.960938 46.242188 "/>
<path style=" stroke:none;fill-rule:evenodd;fill:rgb(100%,100%,100%);fill-opacity:1;" d="M 64.960938 39.042969 C 64.960938 37.316406 62.367188 37.316406 62.367188 39.042969 C 62.367188 40.773438 64.960938 40.773438 64.960938 39.042969 "/>
<path style=" stroke:none;fill-rule:evenodd;fill:rgb(100%,100%,100%);fill-opacity:1;" d="M 64.960938 31.84375 C 64.960938 30.117188 62.367188 30.117188 62.367188 31.84375 C 62.367188 33.570312 64.960938 33.570312 64.960938 31.84375 "/>
<path style=" stroke:none;fill-rule:evenodd;fill:rgb(100%,100%,100%);fill-opacity:1;" d="M 64.960938 24.644531 C 64.960938 22.914062 62.367188 22.914062 62.367188 24.644531 C 62.367188 26.371094 64.960938 26.371094 64.960938 24.644531 "/>
<path style=" stroke:none;fill-rule:evenodd;fill:rgb(100%,100%,100%);fill-opacity:1;" d="M 64.960938 17.445312 C 64.960938 15.714844 62.367188 15.714844 62.367188 17.445312 C 62.367188 19.171875 64.960938 19.171875 64.960938 17.445312 "/>
<path style=" stroke:none;fill-rule:evenodd;fill:rgb(100%,100%,100%);fill-opacity:1;" d="M 64.960938 10.242188 C 64.960938 8.515625 62.367188 8.515625 62.367188 10.242188 C 62.367188 11.972656 64.960938 11.972656 64.960938 10.242188 "/>
</g>
</svg>
