%TF.GenerationSoftware,Altium Limited,Altium Designer,20.2.5 (213)*%
G04 Layer_Physical_Order=1*
G04 Layer_Color=255*
%FSLAX26Y26*%
%MOIN*%
%TF.SameCoordinates,BE539DE5-043B-4D0A-8C02-F193005B2E19*%
%TF.FilePolarity,Positive*%
%TF.FileFunction,Copper,L1,Top,Signal*%
%TF.Part,Single*%
G01*
G75*
%TA.AperFunction,ConnectorPad*%
G04:AMPARAMS|DCode=10|XSize=70mil|YSize=50mil|CornerRadius=12.5mil|HoleSize=0mil|Usage=FLASHONLY|Rotation=270.000|XOffset=0mil|YOffset=0mil|HoleType=Round|Shape=RoundedRectangle|*
%AMROUNDEDRECTD10*
21,1,0.070000,0.025000,0,0,270.0*
21,1,0.045000,0.050000,0,0,270.0*
1,1,0.025000,-0.012500,-0.022500*
1,1,0.025000,-0.012500,0.022500*
1,1,0.025000,0.012500,0.022500*
1,1,0.025000,0.012500,-0.022500*
%
%ADD10ROUNDEDRECTD10*%
G04:AMPARAMS|DCode=11|XSize=100mil|YSize=50mil|CornerRadius=12.5mil|HoleSize=0mil|Usage=FLASHONLY|Rotation=270.000|XOffset=0mil|YOffset=0mil|HoleType=Round|Shape=RoundedRectangle|*
%AMROUNDEDRECTD11*
21,1,0.100000,0.025000,0,0,270.0*
21,1,0.075000,0.050000,0,0,270.0*
1,1,0.025000,-0.012500,-0.037500*
1,1,0.025000,-0.012500,0.037500*
1,1,0.025000,0.012500,0.037500*
1,1,0.025000,0.012500,-0.037500*
%
%ADD11ROUNDEDRECTD11*%
G04:AMPARAMS|DCode=12|XSize=100mil|YSize=50mil|CornerRadius=12.5mil|HoleSize=0mil|Usage=FLASHONLY|Rotation=180.000|XOffset=0mil|YOffset=0mil|HoleType=Round|Shape=RoundedRectangle|*
%AMROUNDEDRECTD12*
21,1,0.100000,0.025000,0,0,180.0*
21,1,0.075000,0.050000,0,0,180.0*
1,1,0.025000,-0.037500,0.012500*
1,1,0.025000,0.037500,0.012500*
1,1,0.025000,0.037500,-0.012500*
1,1,0.025000,-0.037500,-0.012500*
%
%ADD12ROUNDEDRECTD12*%
%TA.AperFunction,Conductor*%
%ADD13C,0.012000*%
%TA.AperFunction,NonConductor*%
%ADD14C,0.020000*%
%TA.AperFunction,ComponentPad*%
%ADD15R,0.060000X0.060000*%
%ADD16C,0.060000*%
D10*
X3142512Y3591496D02*
D03*
X3536213D02*
D03*
D11*
X3221252Y3576496D02*
D03*
X3299992D02*
D03*
X3378732D02*
D03*
X3457472D02*
D03*
D12*
X3042732Y2982756D02*
D03*
Y3061496D02*
D03*
Y3140236D02*
D03*
Y3218976D02*
D03*
Y3297717D02*
D03*
Y3376457D02*
D03*
Y3455197D02*
D03*
Y3533937D02*
D03*
X3637732D02*
D03*
Y3455197D02*
D03*
Y3376457D02*
D03*
Y3297717D02*
D03*
Y3218976D02*
D03*
Y3140236D02*
D03*
Y3061496D02*
D03*
Y2982756D02*
D03*
D13*
X3042252Y3449252D02*
X3052000Y3459000D01*
X3641732Y3523622D02*
X3656732Y3538622D01*
X3038047D02*
X3042732Y3533937D01*
X3641732Y2982756D02*
X3650727D01*
X3720097Y3343307D02*
X3733086D01*
X3029738Y2982756D02*
X3042732D01*
X3011232Y2964251D02*
X3029738Y2982756D01*
X3011232Y2908855D02*
Y2964251D01*
X2945685Y2843307D02*
X3011232Y2908855D01*
X2951630Y3449252D02*
X3042252D01*
X2945685Y3443307D02*
X2963795Y3425197D01*
X2945685Y3443307D02*
X2951630Y3449252D01*
X3021250Y3061496D02*
X3042732D01*
X2945685Y3243307D02*
X2985107Y3282729D01*
X3643677Y3449252D02*
X3727141D01*
X3637732Y3455197D02*
X3643677Y3449252D01*
X3727141D02*
X3733086Y3443307D01*
X3672967Y3291000D02*
X3720660Y3243307D01*
X2945685Y3543307D02*
X2950370Y3538622D01*
X3019543Y3218976D02*
X3042732D01*
X2945685Y3145118D02*
X3019543Y3218976D01*
X3652720Y3361469D02*
X3701935D01*
X3656732Y3538622D02*
X3728401D01*
X2950370D02*
X3038047D01*
X3728401D02*
X3733086Y3543307D01*
X3637732Y3376457D02*
X3652720Y3361469D01*
X3644000Y3291000D02*
X3672967D01*
X3662732Y3140236D02*
X3723902Y3079067D01*
Y3052491D02*
X3733086Y3043307D01*
X3637732Y3140236D02*
X3662732D01*
X3650727Y2982756D02*
X3669232Y2964251D01*
X2991685Y3024253D02*
Y3031931D01*
X2945685Y2949094D02*
X2976732Y2980142D01*
X2991685Y3031931D02*
X3021250Y3061496D01*
X2976732Y3009301D02*
X2991685Y3024253D01*
X2976732Y2980142D02*
Y3009301D01*
X2945685Y2943307D02*
Y2949094D01*
X3669232Y2907161D02*
X3733086Y2843307D01*
X3669232Y2907161D02*
Y2964251D01*
X3723902Y3052491D02*
Y3079067D01*
X3720660Y3243307D02*
X3733086D01*
X3701935Y3361469D02*
X3720097Y3343307D01*
X2945685Y3143307D02*
Y3145118D01*
X2985107Y3282729D02*
X3027745D01*
X3042732Y3297717D01*
D14*
X3260000Y2748000D02*
X3160032D01*
X3193355Y2781323D01*
X3160032Y2814645D01*
X3260000D01*
X3160032Y2847968D02*
X3260000D01*
X3226677D01*
X3160032Y2914613D01*
X3210016Y2864629D01*
X3260000Y2914613D01*
X3176694Y3014581D02*
X3160032Y2997919D01*
Y2964597D01*
X3176694Y2947935D01*
X3193355D01*
X3210016Y2964597D01*
Y2997919D01*
X3226677Y3014581D01*
X3243339D01*
X3260000Y2997919D01*
Y2964597D01*
X3243339Y2947935D01*
X3160032Y3147871D02*
X3260000D01*
X3226677Y3181193D01*
X3260000Y3214516D01*
X3160032D01*
Y3247838D02*
Y3281161D01*
Y3264500D01*
X3260000D01*
Y3247838D01*
Y3281161D01*
X3160032Y3397790D02*
Y3331145D01*
X3210016D01*
Y3364468D01*
Y3331145D01*
X3260000D01*
X3160032Y3431113D02*
Y3464435D01*
Y3447774D01*
X3260000D01*
Y3431113D01*
Y3464435D01*
D15*
X2945685Y2843307D02*
D03*
X3733086D02*
D03*
D16*
X2945685Y2943307D02*
D03*
Y3043307D02*
D03*
Y3143307D02*
D03*
Y3243307D02*
D03*
Y3343307D02*
D03*
Y3443307D02*
D03*
Y3543307D02*
D03*
X3733086Y2943307D02*
D03*
Y3043307D02*
D03*
Y3143307D02*
D03*
Y3243307D02*
D03*
Y3343307D02*
D03*
Y3443307D02*
D03*
Y3543307D02*
D03*
%TF.MD5,fa3e7236ba88cca86d379e4fa6572b2b*%
M02*
